<svg version="1.1" id="Layer_1" xmlns="http://www.w3.org/2000/svg" xmlns:xlink="http://www.w3.org/1999/xlink" x="0px" y="0px"
	 width="100%" viewBox="0 0 1024 1024" enable-background="new 0 0 1024 1024" xml:space="preserve">
<path fill="#000000" opacity="1.000000" stroke="none" 
	d="
M1025.000000,126.531342 
	C1022.088562,121.878052 1016.489685,121.691483 1013.266052,126.655083 
	C1010.745850,130.535385 1010.344116,135.115311 1009.198853,139.448135 
	C1008.662781,141.476120 1008.820801,143.737488 1006.723450,146.149628 
	C1004.380127,138.954285 1004.108154,132.008469 1004.058960,125.180542 
	C1003.829834,93.352791 1003.869080,61.523056 1003.833252,29.694004 
	C1003.824768,22.166096 1003.861938,22.165396 996.570496,22.165611 
	C841.590271,22.170162 686.609985,22.172636 531.629761,22.205141 
	C529.702637,22.205545 527.629944,21.639725 525.078003,23.611448 
	C606.751892,185.291748 688.483704,347.086792 770.827393,510.092957 
	C805.306091,446.191498 839.241760,383.296509 873.177368,320.401550 
	C873.721863,320.331177 874.266357,320.260834 874.810852,320.190460 
	C917.550659,399.497498 960.290405,478.804565 1003.030151,558.111633 
	C1003.305176,558.048096 1003.580261,557.984558 1003.855286,557.921082 
	C1003.855286,554.826599 1003.853821,551.732056 1003.855591,548.637573 
	C1003.916504,440.651611 1003.954285,332.665649 1004.088623,224.679794 
	C1004.098206,216.937744 1004.328003,209.135941 1006.967773,201.587570 
	C1009.117065,207.349030 1009.855896,213.342514 1010.341797,219.334747 
	C1011.203918,229.965683 1015.115540,240.100769 1015.061218,250.897461 
	C1015.008240,261.426514 1013.114441,271.766602 1012.437561,282.224365 
	C1011.856323,291.203674 1011.100830,300.164215 1013.521667,309.031281 
	C1014.916687,314.140839 1017.615234,317.303772 1023.551758,316.479736 
	C1023.906616,314.212067 1024.263062,311.933441 1024.809814,309.327393 
	C1025.000000,547.640076 1025.000000,786.280212 1025.000000,1024.960205 
	C683.731262,1024.960205 342.462555,1024.960205 1.096919,1024.960205 
	C1.096919,683.769348 1.096919,342.538635 1.096919,1.153956 
	C342.333282,1.153956 683.666626,1.153956 1025.000000,1.153956 
	C1025.000000,42.739532 1025.000000,84.401108 1025.000000,126.531342 
M133.499954,1003.722351 
	C420.393433,1003.722351 707.286926,1003.722351 994.180359,1003.722351 
	C994.549805,1003.226318 994.919189,1002.730286 995.288574,1002.234253 
	C834.721863,684.378479 674.155212,366.522705 513.054382,47.609608 
	C351.770813,366.844574 191.139481,684.788635 30.008469,1003.721619 
	C64.963608,1003.721619 98.731781,1003.721619 133.499954,1003.722351 
M471.500000,22.177931 
	C323.856323,22.168615 176.212616,22.159819 28.568930,22.148205 
	C22.202175,22.147705 22.175320,22.161236 22.175301,28.532383 
	C22.174767,203.671432 22.174488,378.810486 22.174162,553.949524 
	C22.174141,565.243164 22.174160,576.536804 22.174160,587.830505 
	C22.438339,587.914612 22.702520,587.998718 22.966700,588.082886 
	C49.517300,535.330505 76.067902,482.578186 102.618500,429.825836 
	C103.169891,429.904602 103.721283,429.983368 104.272675,430.062134 
	C135.869614,492.799652 167.466553,555.537170 199.063492,618.274719 
	C199.593063,618.177429 200.122620,618.080200 200.652191,617.982910 
	C300.762695,419.786316 400.873169,221.589722 501.597504,22.177851 
	C490.757385,22.177851 481.628693,22.177851 471.500000,22.177931 
M840.191895,647.331177 
	C894.403015,754.681580 948.614136,862.031921 1002.825256,969.382263 
	C1003.838379,957.845703 1003.837585,946.690247 1003.838562,935.534790 
	C1003.847839,827.558533 1003.855408,719.582275 1003.875610,611.606018 
	C1003.876282,607.926941 1003.679626,604.436462 1001.794678,601.007507 
	C992.727661,584.513245 983.867371,567.905334 974.934875,551.337097 
	C942.762451,491.662323 910.595032,431.984894 878.401855,372.321381 
	C877.173889,370.045593 876.201538,367.549225 873.718323,365.339294 
	C872.292542,367.811218 871.017517,369.899475 869.858032,372.050049 
	C841.796814,424.098877 813.799438,476.182220 785.600708,528.156433 
	C783.311646,532.375488 783.592407,535.604553 785.670593,539.679016 
	C803.834106,575.290100 821.818665,610.992493 840.191895,647.331177 
M32.558929,617.023071 
	C31.360308,619.403687 30.357988,621.909973 28.928377,624.142700 
	C23.338493,632.872925 21.995926,642.321655 22.020580,652.633545 
	C22.269602,756.790405 22.165384,860.948059 22.186041,965.105530 
	C22.186312,966.468323 21.814369,967.967224 22.966093,969.623901 
	C23.776808,968.109192 24.423916,966.957825 25.018892,965.780151 
	C50.935970,914.480957 76.855743,863.183044 102.759483,811.877136 
	C130.315903,757.297791 157.830017,702.697021 185.472885,648.161560 
	C187.057373,645.035583 187.249115,642.618896 185.627350,639.412354 
	C159.012360,586.789246 132.527756,534.100098 105.995888,481.434875 
	C105.352707,480.158203 105.092087,478.521027 102.668503,477.843964 
	C79.451500,523.951599 56.183929,570.159668 32.558929,617.023071 
z"/>
<path fill="#000000" opacity="1.000000" stroke="none" 
	d="
M1025.000000,278.531342 
	C1023.273804,274.530579 1024.383667,269.841248 1023.933716,265.273071 
	C1023.777161,263.683899 1024.268311,261.916870 1022.600281,260.748749 
	C1018.784790,258.076721 1018.908203,253.205658 1020.904297,251.071075 
	C1025.078613,246.607147 1022.949158,241.321533 1024.801758,236.354095 
	C1025.000000,250.020889 1025.000000,264.041779 1025.000000,278.531342 
z"/>
<path fill="#000000" opacity="1.000000" stroke="none" 
	d="
M571.000000,852.249878 
	C518.174561,852.241699 465.849121,852.236206 413.523682,852.221802 
	C406.715240,852.219910 406.686279,852.198975 406.685974,845.277283 
	C406.680115,709.297791 406.709961,573.318237 406.573212,437.338837 
	C406.567963,432.103851 408.413269,430.890717 413.216217,430.898163 
	C481.705719,431.004517 550.195435,430.962677 618.685120,430.976837 
	C624.837097,430.978119 625.202148,431.356201 625.210022,437.489227 
	C625.235596,457.486145 625.104980,477.484283 625.306824,497.479187 
	C625.353516,502.096558 623.817322,503.463715 619.263123,503.447449 
	C578.269775,503.301025 537.275818,503.359253 496.281982,503.353760 
	C489.373047,503.352844 489.361115,503.344910 489.359039,510.286560 
	C489.351379,536.115845 489.351807,561.945068 489.350189,587.774353 
	C489.349762,594.739563 489.351349,594.750732 496.604950,594.749939 
	C535.432434,594.745728 574.259888,594.735291 613.087341,594.727661 
	C620.114807,594.726257 620.149719,594.727539 620.156311,601.536804 
	C620.175293,621.200500 620.166626,640.864197 620.161987,660.527893 
	C620.160400,667.280945 620.151123,667.299561 613.085938,667.299438 
	C574.258484,667.298828 535.431030,667.290710 496.603546,667.278992 
	C489.386200,667.276855 489.375977,667.263794 489.373566,674.411377 
	C489.362457,707.395996 489.464996,740.381409 489.238922,773.364502 
	C489.203461,778.534546 490.864105,779.802307 495.817566,779.780823 
	C536.644043,779.603210 577.471497,779.676697 618.298706,779.682495 
	C625.219299,779.683472 625.237000,779.702087 625.237732,786.572510 
	C625.239685,806.402832 625.103394,826.234375 625.307068,846.062500 
	C625.356506,850.872070 623.769775,852.414612 618.984924,852.342102 
	C603.159790,852.102356 587.328735,852.250488 571.000000,852.249878 
z"/>
</svg>