<svg version="1.1" id="Layer_1" xmlns="http://www.w3.org/2000/svg" xmlns:xlink="http://www.w3.org/1999/xlink" x="0px" y="0px"
	 width="100%" viewBox="0 0 1024 1024" enable-background="new 0 0 1024 1024" xml:space="preserve">
<path fill="#000000" opacity="1.000000" stroke="none" 
	d="
M1025.000000,822.625000 
	C1023.024841,822.783081 1021.049683,822.376221 1019.074524,822.376160 
	C685.186157,822.362488 351.297760,822.378845 17.409370,822.384460 
	C12.245972,822.384583 7.082570,822.266602 1.459585,822.101929 
	C1.000000,821.250000 1.000000,820.500000 1.000000,819.375000 
	C7.638476,810.194885 12.383350,800.249329 17.832062,790.741882 
	C60.320843,716.603699 102.680382,642.391418 145.072525,568.197815 
	C164.326111,534.500671 183.556610,500.790314 202.825317,467.101807 
	C203.881256,465.255615 204.630569,463.151855 207.394073,461.225372 
	C227.316422,496.029907 247.167297,530.709595 267.690277,566.563416 
	C342.415710,435.868317 416.565491,306.179962 491.604248,174.936813 
	C553.368652,282.939423 614.413940,389.684601 676.090576,497.533691 
	C703.675049,449.296783 730.627380,402.165283 758.198059,353.952484 
	C761.691956,359.855621 764.524048,364.500305 767.222717,369.221283 
	C817.806885,457.710846 868.375793,546.209106 918.946655,634.706238 
	C954.146179,696.304199 989.343872,757.903320 1024.771240,819.750977 
	C1025.000000,820.750000 1025.000000,821.500000 1025.000000,822.625000 
M853.199280,818.892944 
	C856.788147,816.970703 853.527466,815.196472 852.787109,813.895264 
	C811.425110,741.206177 769.990723,668.558350 728.491211,595.947754 
	C687.571533,524.351440 646.540833,452.818512 605.622803,381.221252 
	C568.506409,316.276031 531.478394,251.280258 494.389160,186.319504 
	C493.689087,185.093353 493.393341,183.401917 490.803802,183.047150 
	C370.028076,394.450439 249.127121,606.072937 127.506989,818.954285 
	C370.247803,818.954285 611.349487,818.954285 853.199280,818.892944 
M844.041809,510.394989 
	C815.674316,460.776215 787.306824,411.157440 758.600891,360.946777 
	C757.327515,362.678101 756.669678,363.410309 756.191895,364.245514 
	C730.796936,408.641266 705.435181,453.056000 679.991394,497.423737 
	C678.463928,500.087219 678.593750,502.203156 680.084839,504.803375 
	C705.108093,548.439697 730.070496,592.110962 755.022888,635.787964 
	C788.734253,694.796814 822.478699,753.787109 856.019775,812.892639 
	C858.583740,817.410828 861.386902,819.123352 866.574768,819.100769 
	C915.239502,818.889221 963.905273,818.944824 1012.570740,818.880432 
	C1014.660828,818.877625 1016.877197,819.383057 1018.897827,818.111328 
	C1019.061035,815.871399 1017.592957,814.350647 1016.640015,812.674622 
	C1004.534729,791.385681 992.385620,770.121582 980.249023,748.850464 
	C957.792419,709.491882 935.351685,670.124207 912.876526,630.776306 
	C890.071960,590.851746 867.233765,550.946472 844.041809,510.394989 
M226.702499,501.723816 
	C220.277191,490.493774 213.851868,479.263733 206.868759,467.058777 
	C139.749725,584.560303 73.158501,701.137817 6.651689,817.567505 
	C8.341224,819.162659 9.736148,818.872375 11.021191,818.872864 
	C47.014458,818.886230 83.007904,818.824219 119.000755,818.943787 
	C122.821129,818.956482 124.592987,817.171936 126.301018,814.164490 
	C145.796783,779.837891 165.382706,745.562500 184.965958,711.285583 
	C211.158600,665.440125 237.338852,619.587524 263.647888,573.808960 
	C265.307343,570.921448 265.169006,568.880249 263.567322,566.111633 
	C251.305542,544.916260 239.197479,523.632019 226.702499,501.723816 
z"/>
<path fill="#000000" opacity="1.000000" stroke="none" 
	d="
M575.337158,555.000122 
	C575.336243,563.166565 575.101929,570.842773 575.421692,578.495789 
	C575.613281,583.080200 574.088684,584.487915 569.486023,584.460266 
	C540.654602,584.286926 511.821594,584.384521 482.989105,584.397400 
	C481.323151,584.398132 479.655457,584.402039 477.991577,584.473694 
	C474.815918,584.610535 473.281982,586.020264 473.294281,589.481262 
	C473.386749,615.479980 473.417084,641.479614 473.274475,667.477844 
	C473.249390,672.051819 475.853058,672.070618 479.088135,672.067261 
	C509.753845,672.035278 540.419556,672.045593 571.085327,672.042358 
	C579.335999,672.041504 579.339722,672.039246 579.338135,680.154297 
	C579.335266,694.820557 579.223022,709.487976 579.391846,724.152222 
	C579.436707,728.047974 578.201660,729.380798 574.238403,729.373413 
	C520.573486,729.273010 466.908203,729.247009 413.243530,729.395142 
	C407.858978,729.410034 407.940521,726.483215 407.943268,722.694824 
	C407.984802,665.363220 407.971375,608.031555 407.968658,550.699951 
	C407.966370,502.868042 407.961731,455.036163 407.956848,407.204254 
	C407.956055,399.615479 407.952911,399.610931 415.740662,399.610046 
	C465.405853,399.604492 515.071045,399.602081 564.736206,399.593719 
	C567.069153,399.593323 569.405579,399.617767 571.734497,399.506958 
	C579.327332,399.145782 579.334534,399.123688 579.336365,406.915710 
	C579.339783,421.415283 579.178894,435.917419 579.419861,450.412933 
	C579.495605,454.965302 578.109131,456.440491 573.486267,456.415070 
	C542.488098,456.244843 511.488617,456.325623 480.489532,456.335846 
	C473.303741,456.338226 473.322754,456.357605 473.327148,463.535889 
	C473.339081,483.035095 473.443665,502.535400 473.250397,522.032654 
	C473.206818,526.429871 474.635559,527.765991 478.992462,527.743530 
	C508.990784,527.588867 538.991211,527.776672 568.988525,527.545898 
	C574.061951,527.506836 575.742981,528.939148 575.444153,534.007996 
	C575.042786,540.817139 575.339844,547.667419 575.337158,555.000122 
z"/>
</svg>