<svg version="1.1" id="Layer_1" xmlns="http://www.w3.org/2000/svg" xmlns:xlink="http://www.w3.org/1999/xlink" x="0px" y="0px"
	 width="100%" viewBox="0 0 1024 1024" enable-background="new 0 0 1024 1024" xml:space="preserve">
<path fill="#000000" opacity="1.000000" stroke="none" 
	d="
M548.000000,648.143311 
	C468.117310,648.143494 388.734650,648.143494 309.351959,648.143494 
	C309.056152,647.583130 308.760315,647.022827 308.464478,646.462463 
	C336.875519,596.754150 365.286591,547.045837 394.413879,496.084412 
	C403.179108,511.342255 411.181122,525.271545 419.794891,540.265747 
	C450.924744,485.865967 481.532684,432.378296 513.011597,377.368622 
	C538.828857,422.490143 563.950073,466.395233 589.788818,511.554321 
	C601.347107,491.431458 612.294373,472.372375 624.077698,451.857666 
	C661.641907,517.582947 698.481079,582.039551 735.320251,646.496216 
	C735.075134,647.045166 734.830078,647.594116 734.584961,648.143066 
	C672.556641,648.143066 610.528320,648.143066 548.000000,648.143311 
M461.247345,474.679504 
	C429.118713,530.914612 396.990112,587.149780 364.371979,644.241699 
	C464.267059,644.241699 562.557800,644.241699 661.715759,644.241699 
	C612.028015,557.268372 562.745178,471.003845 513.017395,383.960480 
	C495.434265,414.765717 478.518555,444.401581 461.247345,474.679504 
M592.668640,516.055481 
	C593.090088,516.960632 593.448669,517.901733 593.942017,518.765869 
	C617.228699,559.551392 640.547058,600.318970 663.778503,641.136047 
	C665.309326,643.825745 667.209412,644.739441 670.213806,644.723206 
	C688.376831,644.625061 706.540771,644.695374 724.704285,644.656006 
	C726.128845,644.652893 727.715698,645.121216 728.963074,643.937927 
	C727.904724,639.456299 627.329163,463.363892 623.868713,459.938019 
	C622.154419,460.901398 621.630127,462.764374 620.740662,464.298706 
	C615.310669,473.665680 609.778015,482.980713 604.644287,492.509583 
	C600.554260,500.101105 595.193665,507.026855 592.668640,516.055481 
M396.797180,506.903381 
	C395.966553,505.982330 395.968506,504.286560 394.287689,504.148315 
	C388.660736,511.247864 315.642792,640.320435 315.102997,644.162964 
	C315.550690,644.313599 316.010559,644.602722 316.471008,644.603699 
	C329.958557,644.632263 343.446350,644.597290 356.933594,644.665100 
	C359.729462,644.679199 361.076050,643.047119 362.291687,640.916199 
	C380.106995,609.687439 397.910156,578.451599 415.836212,547.286499 
	C417.382263,544.598694 417.290009,542.575439 415.775146,539.984802 
	C409.473328,529.208008 403.352783,518.325256 396.797180,506.903381 
z"/>
<path fill="#000000" opacity="1.000000" stroke="none" 
	d="
M528.999878,584.758362 
	C534.832520,584.760132 540.168396,584.874023 545.496704,584.722290 
	C548.710083,584.630859 550.080933,585.964539 550.050781,589.112244 
	C550.001282,594.277527 549.978638,599.445312 550.084534,604.609131 
	C550.153503,607.972900 548.788879,609.350403 545.329285,609.335571 
	C524.498718,609.246216 503.667145,609.219849 482.837219,609.364807 
	C478.748016,609.393250 477.707031,607.631287 477.746796,603.946960 
	C477.874451,592.116394 477.810150,580.283569 477.807678,568.451660 
	C477.801331,538.121887 477.785248,507.792084 477.780670,477.462280 
	C477.779694,471.176697 477.903412,471.028778 484.210632,471.020264 
	C504.041626,470.993500 523.873840,471.111877 543.702820,470.909363 
	C548.457642,470.860779 550.400330,472.441376 550.121643,477.231354 
	C549.860657,481.715851 549.977295,486.228790 550.079651,490.725769 
	C550.156189,494.085785 548.819397,495.464081 545.338623,495.420776 
	C534.008423,495.279877 522.672302,495.521881 511.344849,495.295380 
	C507.161072,495.211700 505.717865,496.662415 505.888702,500.781586 
	C506.150909,507.103912 506.123566,513.447632 505.951263,519.775024 
	C505.851440,523.440613 507.207306,524.780457 510.906891,524.721741 
	C521.569580,524.552551 532.239502,524.807983 542.900696,524.595642 
	C547.004578,524.513916 548.620239,525.872498 548.356750,530.033264 
	C548.083557,534.348816 548.046936,538.713074 548.361206,543.022949 
	C548.691345,547.550964 547.112854,549.279053 542.453003,549.158508 
	C532.294312,548.895630 522.120544,549.230103 511.960541,548.992065 
	C507.469299,548.886841 505.685638,550.334106 505.858185,554.990906 
	C506.154114,562.979126 506.164062,570.994080 505.866425,578.981873 
	C505.690826,583.694397 507.513214,585.115356 512.006104,584.850952 
	C517.486816,584.528381 523.000488,584.764282 528.999878,584.758362 
z"/>
</svg>